<svg width="544" height="619" viewBox="0 0 544 619" fill="none" xmlns="http://www.w3.org/2000/svg">
<path d="M524.159 237.062C523.375 205.502 502.9 178.211 473.815 164.937C502.24 151.664 521.357 124.372 520.572 92.8131C519.462 48.2151 479.142 12.0355 430.549 12.0355C392.024 12.0355 359.91 34.7848 348.795 66.4615C336.105 34.8239 302.858 12.0355 264.334 12.0355C225.809 12.0355 193.695 34.7848 182.58 66.4615C169.803 34.7456 136.557 11.9963 98.0321 11.9963C49.4389 11.9963 10.9182 48.1759 12.0275 92.7739C12.8125 124.333 33.2869 151.625 62.372 164.898C33.9482 178.211 14.8304 205.463 15.6164 237.062C16.4024 268.66 36.8758 295.912 65.9609 309.186C37.5362 322.46 18.4193 349.751 19.2043 381.31C19.9893 412.869 40.4638 440.161 69.5488 453.434C41.1241 466.708 22.0073 493.999 22.7922 525.559C23.9015 570.157 64.222 606.336 112.815 606.336C151.34 606.336 183.454 583.587 194.569 551.91C207.259 583.548 240.506 606.336 279.03 606.336C317.555 606.336 349.669 583.587 360.784 551.91C373.474 583.548 406.721 606.336 445.245 606.336C493.839 606.336 532.359 570.157 531.25 525.559C530.465 493.999 509.991 466.708 480.906 453.434C509.33 440.161 528.447 412.869 527.662 381.31C526.877 349.751 506.403 322.46 477.318 309.186C505.742 295.912 524.859 268.621 524.074 237.062H524.159Z" fill="#FFFDF0" stroke="#F6E27F" stroke-width="24"/>
</svg>
