<?xml version="1.0" encoding="UTF-8"?>
<svg id="Capa_1" xmlns="http://www.w3.org/2000/svg" version="1.1" viewBox="0 0 500 250">
  <!-- Generator: Adobe Illustrator 30.2.1, SVG Export Plug-In . SVG Version: 2.1.1 Build 1)  -->
  <defs>
    <style>
      .st0 {
        fill: #003422;
      }
    </style>
  </defs>
  <g>
    <path class="st0" d="M71.06,81.23c-3.29,0-6.22-.46-8.8-1.38s-4.78-2.28-6.59-4.1c-1.81-1.81-3.19-4.06-4.13-6.75-.94-2.69-1.41-5.8-1.41-9.34s.48-6.76,1.44-9.54c.96-2.77,2.35-5.13,4.16-7.07,1.81-1.94,3.96-3.4,6.43-4.38,2.47-.98,5.23-1.47,8.26-1.47,2.35,0,4.52.31,6.53.93,2,.62,3.73,1.5,5.18,2.66,1.45,1.15,2.59,2.56,3.42,4.22s1.27,3.54,1.31,5.63l-8.51,2.24c0-1.79-.4-3.29-1.19-4.48-.79-1.19-1.81-2.1-3.07-2.72-1.26-.62-2.59-.93-4-.93-1.24,0-2.46.25-3.68.74-1.21.49-2.33,1.3-3.33,2.43-1,1.13-1.81,2.61-2.43,4.45-.62,1.83-.93,4.07-.93,6.72,0,3.46.5,6.25,1.5,8.38,1,2.13,2.38,3.7,4.13,4.7,1.75,1,3.71,1.5,5.89,1.5,2.35,0,4.17-.48,5.47-1.44,1.3-.96,2.24-2.2,2.82-3.71.58-1.51.88-3.12.93-4.83l8.06,1.34c-.04,2.26-.38,4.38-1.03,6.37-.64,1.98-1.64,3.71-3.01,5.18-1.37,1.47-3.16,2.61-5.38,3.42-2.22.81-4.91,1.22-8.06,1.22Z"/>
    <path class="st0" d="M109.97,81.23c-3.37,0-6.34-.67-8.9-2.02-2.56-1.34-4.57-3.33-6.02-5.95-1.45-2.62-2.18-5.9-2.18-9.82s.74-7.19,2.21-9.79c1.47-2.6,3.5-4.55,6.08-5.86,2.58-1.3,5.51-1.95,8.8-1.95s6.35.66,8.93,1.98c2.58,1.32,4.61,3.3,6.08,5.92s2.21,5.9,2.21,9.82-.76,7.26-2.27,9.89c-1.52,2.62-3.56,4.58-6.14,5.86-2.58,1.28-5.51,1.92-8.8,1.92ZM110.29,74.38c1.66,0,3.06-.38,4.19-1.15,1.13-.77,1.98-1.93,2.56-3.49.58-1.56.86-3.45.86-5.66,0-2.35-.31-4.34-.93-5.98-.62-1.64-1.53-2.9-2.72-3.78-1.2-.87-2.71-1.31-4.54-1.31-1.58,0-2.94.37-4.1,1.12-1.15.75-2.03,1.9-2.62,3.46-.6,1.56-.9,3.47-.9,5.73,0,3.63.72,6.38,2.18,8.26,1.45,1.88,3.46,2.82,6.02,2.82Z"/>
    <path class="st0" d="M133.71,80.33v-33.6h7.36v10.05h1.22c.6-2.47,1.39-4.51,2.37-6.11.98-1.6,2.17-2.81,3.55-3.62,1.39-.81,3.02-1.22,4.9-1.22,2,0,3.67.45,4.99,1.34,1.32.9,2.35,2.14,3.07,3.74.73,1.6,1.19,3.55,1.41,5.86h1.02c.64-2.52,1.5-4.59,2.59-6.21,1.09-1.62,2.39-2.82,3.9-3.58,1.51-.77,3.19-1.15,5.02-1.15s3.45.36,4.83,1.09c1.39.73,2.55,1.8,3.49,3.23.94,1.43,1.64,3.22,2.11,5.38.47,2.15.7,4.64.7,7.46v17.34h-9.22v-16.19c0-2.3-.19-4.23-.58-5.79-.38-1.56-.98-2.72-1.79-3.49s-1.86-1.15-3.14-1.15c-1.41,0-2.62.48-3.65,1.44-1.02.96-1.83,2.27-2.43,3.94s-.92,3.56-.96,5.7v15.55h-9.02v-15.94c0-2.39-.21-4.36-.64-5.92-.43-1.56-1.05-2.74-1.86-3.55-.81-.81-1.83-1.22-3.07-1.22-1.45,0-2.69.48-3.71,1.44-1.02.96-1.81,2.29-2.37,4-.55,1.71-.85,3.61-.9,5.7v15.49h-9.22Z"/>
    <path class="st0" d="M209.87,81.23c-2.77,0-5.24-.38-7.39-1.15-2.16-.77-3.98-1.88-5.47-3.33-1.49-1.45-2.63-3.24-3.42-5.38-.79-2.13-1.18-4.54-1.18-7.23s.37-5.09,1.12-7.33c.75-2.24,1.84-4.18,3.3-5.82,1.45-1.64,3.22-2.91,5.31-3.81,2.09-.9,4.46-1.34,7.1-1.34s4.84.42,6.85,1.25c2,.83,3.68,2.08,5.02,3.74,1.34,1.66,2.33,3.7,2.94,6.11.62,2.41.84,5.17.67,8.29l-26.37.26v-5.06l21.06-.19-3.26,2.56c.3-2.26.15-4.12-.45-5.57-.6-1.45-1.46-2.52-2.59-3.2-1.13-.68-2.38-1.02-3.74-1.02-1.62,0-3.05.43-4.29,1.28-1.24.85-2.2,2.1-2.88,3.74-.68,1.64-1.02,3.62-1.02,5.92,0,3.63.8,6.29,2.4,8,1.6,1.71,3.7,2.56,6.3,2.56,1.19,0,2.21-.16,3.04-.48.83-.32,1.51-.74,2.05-1.25.53-.51.96-1.09,1.28-1.73.32-.64.59-1.28.8-1.92l8,1.73c-.38,1.58-.95,3-1.7,4.26-.75,1.26-1.74,2.35-2.98,3.26-1.24.92-2.72,1.62-4.45,2.11-1.73.49-3.74.74-6.05.74Z"/>
    <path class="st0" d="M248.72,80.33v-21.5h-5.31v-6.78l8.96.38v-1.22c-1.49-.34-2.72-.88-3.68-1.63-.96-.75-1.65-1.65-2.08-2.72-.43-1.07-.64-2.2-.64-3.39,0-1.83.47-3.42,1.41-4.77.94-1.34,2.26-2.39,3.97-3.14,1.71-.75,3.71-1.12,6.02-1.12,1.96,0,3.74.25,5.34.74,1.6.49,2.89,1.1,3.87,1.82l-.58,8.32c-1.02-.73-2.18-1.32-3.46-1.79-1.28-.47-2.5-.7-3.65-.7-1.28,0-2.34.34-3.17,1.02-.83.68-1.25,1.79-1.25,3.33,0,1.07.22,1.91.67,2.53.45.62,1,1.07,1.66,1.34.66.28,1.31.46,1.95.54h7.68v7.23h-8.77v21.5h-8.96Z"/>
    <path class="st0" d="M287.06,81.23c-3.37,0-6.34-.67-8.9-2.02-2.56-1.34-4.57-3.33-6.02-5.95-1.45-2.62-2.18-5.9-2.18-9.82s.74-7.19,2.21-9.79c1.47-2.6,3.5-4.55,6.08-5.86,2.58-1.3,5.51-1.95,8.8-1.95s6.35.66,8.93,1.98c2.58,1.32,4.61,3.3,6.08,5.92s2.21,5.9,2.21,9.82-.76,7.26-2.27,9.89c-1.52,2.62-3.56,4.58-6.14,5.86-2.58,1.28-5.51,1.92-8.8,1.92ZM287.38,74.38c1.66,0,3.06-.38,4.19-1.15,1.13-.77,1.98-1.93,2.56-3.49.58-1.56.86-3.45.86-5.66,0-2.35-.31-4.34-.93-5.98-.62-1.64-1.53-2.9-2.72-3.78-1.2-.87-2.71-1.31-4.54-1.31-1.58,0-2.94.37-4.1,1.12-1.15.75-2.03,1.9-2.62,3.46-.6,1.56-.9,3.47-.9,5.73,0,3.63.72,6.38,2.18,8.26,1.45,1.88,3.46,2.82,6.02,2.82Z"/>
    <path class="st0" d="M310.8,80.33v-33.6h7.62l.06,11.46h1.22c.34-2.86.93-5.18,1.76-6.98s1.99-3.11,3.49-3.97c1.49-.85,3.35-1.28,5.57-1.28.38,0,.8.01,1.25.03.45.02.97.1,1.57.22l-.38,9.79c-.64-.3-1.34-.51-2.11-.64-.77-.13-1.45-.19-2.05-.19-1.66,0-3.09.38-4.29,1.15-1.2.77-2.17,1.87-2.91,3.3-.75,1.43-1.25,3.17-1.5,5.22v15.49h-9.28Z"/>
    <path class="st0" d="M365.77,81.1c-3.75,0-6.52-.99-8.29-2.98-1.77-1.98-2.66-5.15-2.66-9.5v-14.66h-4.86l.13-7.23h3.39c1.32,0,2.3-.19,2.94-.58.64-.38,1.02-1.09,1.15-2.11l.83-4.8h5.25v7.49h8.51v7.49h-8.51v14.02c0,1.54.36,2.65,1.09,3.33.73.68,1.83,1.02,3.33,1.02.81,0,1.59-.08,2.34-.26.75-.17,1.4-.45,1.95-.83v8.58c-1.32.43-2.54.7-3.65.83-1.11.13-2.09.19-2.94.19Z"/>
    <path class="st0" d="M378.7,80.33v-45.76h9.28v10.5c0,.85-.03,1.75-.1,2.69-.06.94-.17,1.89-.32,2.85s-.3,1.93-.45,2.91c-.15.98-.31,1.96-.48,2.94h1.41c.6-2.18,1.35-4.05,2.27-5.63.92-1.58,2.1-2.81,3.55-3.68,1.45-.87,3.29-1.31,5.5-1.31,3.92,0,6.87,1.38,8.83,4.13s2.94,6.97,2.94,12.64v17.73h-9.28v-16.32c0-3.58-.52-6.24-1.57-7.97-1.05-1.73-2.61-2.59-4.7-2.59-1.71,0-3.12.51-4.22,1.54-1.11,1.02-1.94,2.4-2.5,4.13-.56,1.73-.88,3.66-.96,5.79v15.42h-9.22Z"/>
    <path class="st0" d="M434.7,81.23c-2.77,0-5.24-.38-7.39-1.15-2.16-.77-3.98-1.88-5.47-3.33-1.49-1.45-2.63-3.24-3.42-5.38-.79-2.13-1.18-4.54-1.18-7.23s.37-5.09,1.12-7.33c.75-2.24,1.84-4.18,3.3-5.82,1.45-1.64,3.22-2.91,5.31-3.81,2.09-.9,4.46-1.34,7.1-1.34s4.84.42,6.85,1.25c2,.83,3.68,2.08,5.02,3.74,1.34,1.66,2.33,3.7,2.94,6.11.62,2.41.84,5.17.67,8.29l-26.37.26v-5.06l21.06-.19-3.26,2.56c.3-2.26.15-4.12-.45-5.57-.6-1.45-1.46-2.52-2.59-3.2-1.13-.68-2.38-1.02-3.74-1.02-1.62,0-3.05.43-4.29,1.28-1.24.85-2.2,2.1-2.88,3.74-.68,1.64-1.02,3.62-1.02,5.92,0,3.63.8,6.29,2.4,8,1.6,1.71,3.7,2.56,6.3,2.56,1.19,0,2.21-.16,3.04-.48.83-.32,1.51-.74,2.05-1.25.53-.51.96-1.09,1.28-1.73.32-.64.59-1.28.8-1.92l8,1.73c-.38,1.58-.95,3-1.7,4.26-.75,1.26-1.74,2.35-2.98,3.26-1.24.92-2.72,1.62-4.45,2.11-1.73.49-3.74.74-6.05.74Z"/>
  </g>
  <g>
    <g>
      <path class="st0" d="M61.08,94.69c0,1.98-.55,3.88-1.65,5.7-1.1,1.82-2.45,3.52-4.05,5.07-1.6,1.56-3.35,3-5.24,4.33-1.9,1.33-3.65,2.49-5.24,3.48-1.52,1.07-2.78,1.94-3.76,2.62-.99.68-1.48,1.22-1.48,1.6,0,.99.11,2.38.34,4.16.23,1.79.51,3.72.85,5.81.34,2.09.68,4.24,1.03,6.44.34,2.2.59,4.22.74,6.04,0,.08.06.42.17,1.03.11.61.26,1.29.46,2.05.19.76.34,1.46.46,2.11.11.64.17,1.04.17,1.2,0,.53-.02,1.12-.06,1.77-.04.64-.15,1.25-.34,1.82-.19.57-.48,1.04-.86,1.42-.38.38-.87.57-1.48.57-.84,0-1.44-.36-1.82-1.08-.38-.72-.57-1.42-.57-2.11,0-.15.02-.3.06-.46.04-.15.06-.34.06-.57,0-.84-.3-3.08-.91-6.73-.61-3.65-1.29-8-2.05-13.05-.76-5.05-1.44-10.49-2.05-16.3-.61-5.81-.91-11.3-.91-16.47,0-.38.04-.82.11-1.31.07-.49.11-.93.11-1.31-.76.08-1.88.42-3.36,1.03-1.48.61-2.95,1.35-4.39,2.22-1.44.87-2.72,1.79-3.82,2.74-1.1.95-1.65,1.81-1.65,2.56h-.8c-.23,0-.51-.15-.86-.46-.34-.3-.64-.64-.91-1.03-.27-.38-.51-.76-.74-1.14-.23-.38-.34-.64-.34-.8,0-1.6.95-3.1,2.85-4.5,1.9-1.41,4.27-2.66,7.12-3.76,2.85-1.1,5.98-1.98,9.41-2.62,3.42-.64,6.65-.97,9.69-.97s5.45.34,7.47,1.03c2.01.68,3.63,1.5,4.85,2.45,1.21.95,2.09,1.92,2.62,2.91.53.99.8,1.82.8,2.51ZM55.49,94.34c0-.76-.95-1.54-2.85-2.34-1.9-.8-4.14-1.2-6.73-1.2-2.28,0-3.95.08-5.02.23-1.06.15-1.79.3-2.17.46-.15,1.22-.27,2.66-.34,4.33-.08,1.67-.11,3.38-.11,5.13s.06,3.59.17,5.3c.11,1.71.25,3.13.4,4.27,1.06-.68,2.53-1.61,4.39-2.79,1.86-1.18,3.7-2.51,5.53-3.99,1.82-1.48,3.4-3.04,4.73-4.67,1.33-1.63,2-3.21,2-4.73Z"/>
      <path class="st0" d="M117.61,124.92c0,1.37-.63,3.06-1.88,5.07-1.25,2.01-2.95,3.97-5.07,5.87-2.13,1.9-4.6,3.52-7.41,4.85-2.81,1.33-5.74,2-8.78,2-1.37,0-2.81-.23-4.33-.68-1.52-.46-3-1.12-4.45-2-1.44-.87-2.74-1.94-3.88-3.19-1.14-1.25-1.98-2.68-2.51-4.28-.46.46-1.01,1.22-1.65,2.28-.65,1.06-1.35,2.15-2.11,3.25-.76,1.1-1.6,2.05-2.51,2.85s-1.86,1.2-2.85,1.2-1.81-.51-2.45-1.54c-.65-1.03-1.16-2.17-1.54-3.42-.38-1.25-.65-2.45-.8-3.59-.15-1.14-.23-1.79-.23-1.94,0-.91.27-2.64.8-5.19.53-2.55,1.33-5.19,2.39-7.92,1.06-2.74,2.41-5.17,4.05-7.3,1.63-2.13,3.55-3.19,5.76-3.19.84,0,1.39.36,1.65,1.08.27.72.4,1.42.4,2.11v3.42c.38.3.78.51,1.2.63.42.11.8.27,1.14.46.34.19.61.48.8.85.19.38.29.99.29,1.82,0,.53-.04,1.01-.11,1.42-.08.42-.11.82-.11,1.2,0,1.98.15,3.92.46,5.81.3,1.9.91,3.59,1.82,5.07s2.17,2.7,3.76,3.65c1.6.95,3.72,1.43,6.38,1.43,3.34,0,6.17-.7,8.49-2.11,2.32-1.41,4.26-2.96,5.81-4.67,1.56-1.71,2.79-3.27,3.71-4.67.91-1.41,1.67-2.11,2.28-2.11.99,0,1.48.5,1.48,1.48ZM77.6,119.9c0-.3-.08-.59-.23-.85-.15-.27-.23-.51-.23-.74,0-.3.07-.57.23-.8.15-.23.23-.53.23-.91,0-.23-.08-.4-.23-.51-.15-.11-.23-.25-.23-.4-.68.15-1.39.8-2.11,1.94-.72,1.14-1.41,2.47-2.05,3.99-.65,1.52-1.16,3.06-1.54,4.62-.38,1.56-.57,2.83-.57,3.82,0,.53.15,1.41.46,2.62.3,1.22.65,2.02,1.03,2.39,1.29-2.66,2.49-5.24,3.59-7.75,1.1-2.51,1.65-4.98,1.65-7.41Z"/>
      <path class="st0" d="M145.8,116.86c0,.53-.23.97-.68,1.31s-.99.63-1.6.85c-.61.23-1.22.4-1.82.51-.61.11-1.1.17-1.48.17-1.14,0-1.9-.07-2.28-.23-.38-.15-.68-.23-.91-.23-1.9,0-3.42.15-4.56.46-1.14.3-2.03.8-2.68,1.48-.65.68-1.07,1.54-1.25,2.56-.19,1.03-.29,2.26-.29,3.71,0,2.43.09,4.37.29,5.81.19,1.44.38,2.62.57,3.53.19.91.38,1.62.57,2.11.19.5.29.97.29,1.42,0,.61-.32,1.25-.97,1.94-.65.68-1.24,1.03-1.77,1.03-.91,0-1.73-.82-2.45-2.45-.72-1.63-1.33-3.57-1.82-5.81-.5-2.24-.89-4.46-1.2-6.67-.3-2.2-.46-3.88-.46-5.02,0-1.29.11-2.53.34-3.71.23-1.18.53-2.2.91-3.08.38-.87.8-1.58,1.25-2.11.46-.53.91-.8,1.37-.8.38,0,.68.13.91.4.23.27.42.57.57.91.15.34.32.65.51.91.19.27.44.4.74.4.68,0,1.78-.34,3.31-1.03,1.52-.68,3.38-1.03,5.59-1.03,2.05,0,3.59.06,4.62.17,1.03.11,2.03.36,3.02.74.23.08.51.25.86.51.34.27.51.67.51,1.2Z"/>
      <path class="st0" d="M188.27,103.74c-.99,1.14-2.39,2.26-4.22,3.36-1.82,1.1-3.65,2.11-5.47,3.02s-3.42,1.69-4.79,2.34c-1.37.65-2.05,1.08-2.05,1.31s.15.91.46,2.05c.3,1.14.66,2.49,1.08,4.05.42,1.56.85,3.17,1.31,4.85.46,1.67.84,3.15,1.14,4.45.15.76.34,1.75.57,2.96.23,1.22.44,2.43.63,3.65.19,1.22.36,2.3.51,3.25.15.95.23,1.46.23,1.54,0,1.14-.19,2.32-.57,3.53-.38,1.22-.99,1.82-1.82,1.82-.46,0-.88-.19-1.25-.57-.38-.38-.72-.82-1.03-1.31-.3-.49-.53-.97-.68-1.42-.15-.46-.23-.8-.23-1.03,0-.15.02-.38.06-.68.04-.3.06-.64.06-1.03,0-1.44-.23-3.53-.68-6.27-.15-.84-.46-2.13-.91-3.88-.46-1.75-.91-3.53-1.37-5.36-.53-2.13-1.14-4.45-1.82-6.95-.3-1.06-.5-1.6-.57-1.6-.53,0-1.42.32-2.68.97-1.25.65-2.68,1.44-4.28,2.39-1.6.95-3.27,1.98-5.02,3.08-1.75,1.1-3.38,2.13-4.9,3.08-1.52.95-2.83,1.75-3.93,2.39-1.1.65-1.77.97-2,.97-.99,0-1.79-.34-2.39-1.03-.61-.68-.91-1.44-.91-2.28,0-.46.63-1.12,1.88-1.99,1.25-.87,2.81-1.84,4.67-2.91,1.86-1.06,3.88-2.17,6.04-3.31,2.17-1.14,4.18-2.17,6.04-3.08,1.86-.91,4.05-1.98,6.55-3.19-.68-3.49-1.25-6.61-1.71-9.35-.38-2.35-.74-4.52-1.08-6.5-.34-1.98-.51-3.04-.51-3.19,0-.99.21-1.73.63-2.22.42-.49.89-.74,1.42-.74.84,0,1.37.57,1.6,1.71.84,4.1,1.61,7.75,2.34,10.94.72,3.19,1.42,5.78,2.11,7.75.68-.15,1.86-.59,3.53-1.31,1.67-.72,3.42-1.5,5.24-2.34,1.82-.84,3.48-1.58,4.96-2.22,1.48-.65,2.34-.97,2.56-.97.46,0,.74.15.86.46.11.3.25.57.4.8Z"/>
      <path class="st0" d="M211.19,92.28c-.99,5.24-1.9,10.3-2.74,15.16-.38,2.05-.76,4.2-1.14,6.44-.38,2.24-.74,4.45-1.08,6.61s-.65,4.22-.91,6.16c-.27,1.94-.48,3.71-.63,5.3-.3,2.43-.53,5.21-.68,8.32-.15,3.12-.3,6.08-.46,8.89-.15,3.27-.23,6.57-.23,9.92,0,.68-.08,1.44-.23,2.28-.15.83-.23,1.67-.23,2.51,0,.76-.17,1.41-.51,1.94-.34.53-.85.8-1.54.8-.61,0-1.08-.48-1.42-1.42-.34-.95-.63-2.05-.85-3.31-.23-1.25-.38-2.51-.46-3.76-.08-1.25-.11-2.15-.11-2.68v-2.22c0-.88.06-2.17.17-3.88s.29-3.95.51-6.73c.23-2.77.57-6.4,1.03-10.89,0-.08-.51-.46-1.54-1.14-1.03-.68-2.28-1.54-3.76-2.57-1.48-1.03-3-2.15-4.56-3.36-1.56-1.21-2.87-2.39-3.93-3.53-.15-.15-.38-.49-.68-1.03-.3-.53-.46-1.18-.46-1.94,0-.38.19-.78.57-1.2.38-.42.8-.63,1.25-.63.3,0,.61.15.91.46,1.75,1.52,3.76,3.21,6.04,5.07,2.28,1.86,4.52,3.55,6.73,5.07.15-1.37.47-3.46.97-6.27.49-2.81,1.01-5.83,1.54-9.06.53-3.23,1.04-6.36,1.54-9.41.49-3.04.85-5.47,1.08-7.3,0-.3.07-.8.23-1.48.15-.68.38-1.37.68-2.05.3-.68.64-1.27,1.03-1.77.38-.49.8-.74,1.25-.74.23,0,.72.21,1.48.63.76.42,1.14,1.35,1.14,2.79Z"/>
      <path class="st0" d="M230,141.98c0,.84-.32,2.05-.97,3.65-.65,1.6-1.46,3.19-2.45,4.79-.99,1.6-2.11,2.98-3.36,4.16-1.25,1.18-2.45,1.77-3.59,1.77-.61,0-1.12-.25-1.54-.74-.42-.5-.63-.85-.63-1.08,0-.08.36-.55,1.08-1.42.72-.87,1.54-1.92,2.45-3.13.91-1.22,1.73-2.55,2.45-3.99.72-1.44,1.08-2.85,1.08-4.22,0-1.44-.17-2.53-.51-3.25-.34-.72-.7-1.33-1.08-1.82-.38-.49-.74-.95-1.08-1.37-.34-.42-.51-1.04-.51-1.88,0-1.14.61-1.71,1.82-1.71s2.24.4,3.08,1.2c.83.8,1.54,1.75,2.11,2.85.57,1.1.99,2.22,1.25,3.36.26,1.14.4,2.09.4,2.85Z"/>
    </g>
    <g>
      <path class="st0" d="M259.22,144.08c-2.26,0-4.31-.21-6.14-.64-1.83-.43-3.41-1.04-4.74-1.86-1.32-.81-2.39-1.78-3.2-2.91-.81-1.13-1.34-2.4-1.6-3.81l7.04-2.88c.17.94.64,1.81,1.41,2.62.77.81,1.8,1.46,3.1,1.95,1.3.49,2.87.74,4.7.74,1.96,0,3.48-.29,4.54-.86,1.07-.58,1.6-1.4,1.6-2.46,0-.81-.3-1.45-.9-1.92-.6-.47-1.47-.87-2.62-1.22-1.15-.34-2.54-.66-4.16-.96-1.58-.38-3.19-.79-4.83-1.22-1.64-.43-3.16-1.02-4.54-1.79-1.39-.77-2.52-1.78-3.39-3.04-.88-1.26-1.31-2.87-1.31-4.83s.55-3.84,1.66-5.38c1.11-1.54,2.73-2.74,4.86-3.62,2.13-.87,4.74-1.31,7.81-1.31,2.77,0,5.21.37,7.3,1.12,2.09.75,3.81,1.81,5.15,3.2,1.34,1.39,2.25,3.04,2.72,4.96l-7.49,2.5c-.17-1.02-.59-1.92-1.25-2.69-.66-.77-1.54-1.34-2.62-1.73-1.09-.38-2.36-.58-3.81-.58-1.83,0-3.25.3-4.26.9-1,.6-1.5,1.39-1.5,2.37,0,.81.33,1.47.99,1.98.66.51,1.59.93,2.78,1.25,1.19.32,2.6.65,4.22.99,1.71.34,3.37.74,4.99,1.18,1.62.45,3.08,1.04,4.38,1.76,1.3.73,2.34,1.69,3.1,2.88.77,1.19,1.15,2.73,1.15,4.61,0,2.22-.6,4.13-1.79,5.73-1.2,1.6-2.92,2.83-5.18,3.68-2.26.85-4.99,1.28-8.19,1.28Z"/>
      <path class="st0" d="M293.07,143.95c-3.75,0-6.52-.99-8.29-2.98-1.77-1.98-2.66-5.15-2.66-9.5v-14.66h-4.86l.13-7.23h3.39c1.32,0,2.3-.19,2.94-.58.64-.38,1.02-1.09,1.15-2.11l.83-4.8h5.25v7.49h8.51v7.49h-8.51v14.02c0,1.54.36,2.65,1.09,3.33s1.83,1.02,3.33,1.02c.81,0,1.59-.08,2.34-.26.75-.17,1.4-.45,1.95-.83v8.58c-1.32.43-2.54.7-3.65.83-1.11.13-2.09.19-2.94.19Z"/>
      <path class="st0" d="M313.87,144.08c-1.88,0-3.54-.37-4.99-1.12s-2.58-1.82-3.39-3.23-1.22-3.16-1.22-5.25c0-1.83.35-3.37,1.06-4.61.7-1.24,1.74-2.24,3.1-3.01,1.37-.77,3.05-1.41,5.06-1.92,2-.51,4.29-.96,6.85-1.34,1.37-.21,2.49-.42,3.36-.61.87-.19,1.53-.51,1.95-.96.43-.45.64-1.1.64-1.95,0-1.19-.43-2.22-1.28-3.07-.85-.85-2.2-1.28-4.03-1.28-1.24,0-2.38.21-3.42.64-1.05.43-1.94,1.07-2.69,1.92-.75.85-1.29,1.94-1.63,3.26l-8.13-2.5c.51-1.75,1.25-3.26,2.21-4.54s2.12-2.36,3.49-3.23c1.36-.87,2.92-1.53,4.67-1.95,1.75-.43,3.65-.64,5.7-.64,3.29,0,5.96.52,8.03,1.57,2.07,1.05,3.62,2.67,4.64,4.86,1.02,2.2,1.54,5.02,1.54,8.48v5.76c0,1.49.03,3.01.1,4.54.06,1.54.15,3.08.26,4.64.11,1.56.22,3.1.35,4.64h-8.13c-.17-1.07-.33-2.29-.48-3.68-.15-1.39-.27-2.78-.35-4.19h-1.15c-.6,1.62-1.45,3.09-2.56,4.42-1.11,1.32-2.46,2.38-4.06,3.17-1.6.79-3.42,1.18-5.47,1.18ZM317.78,137.42c.81,0,1.63-.15,2.46-.45.83-.3,1.64-.71,2.43-1.25.79-.53,1.51-1.21,2.18-2.02.66-.81,1.21-1.73,1.63-2.75l-.13-5.38,1.47.32c-.77.56-1.66.99-2.69,1.31-1.02.32-2.08.57-3.17.74-1.09.17-2.17.36-3.23.58-1.07.21-2.02.49-2.85.83-.83.34-1.49.8-1.98,1.38-.49.58-.74,1.38-.74,2.4,0,1.32.43,2.37,1.28,3.14.85.77,1.96,1.15,3.33,1.15Z"/>
      <path class="st0" d="M356.05,154.83c-1.71,0-3.45-.16-5.22-.48-1.77-.32-3.44-.81-4.99-1.47-1.56-.66-2.89-1.5-4-2.53l2.62-7.87c1.37,1.41,3.07,2.46,5.12,3.17s4.07,1.06,6.08,1.06c2.26,0,4.15-.46,5.66-1.38,1.51-.92,2.67-2.32,3.46-4.22.79-1.9,1.25-4.28,1.38-7.14l.38-5.82h-1.41c-.43,2.82-1.12,5.12-2.08,6.91s-2.18,3.1-3.65,3.94c-1.47.83-3.21,1.25-5.22,1.25-2.43,0-4.48-.62-6.14-1.86-1.66-1.24-2.91-3.09-3.74-5.57-.83-2.47-1.25-5.52-1.25-9.15v-14.08h9.22v11.84c0,3.97.45,6.83,1.34,8.58.9,1.75,2.26,2.62,4.1,2.62.98,0,1.88-.27,2.69-.8.81-.53,1.5-1.31,2.08-2.34.58-1.02,1.02-2.27,1.34-3.74.32-1.47.48-3.15.48-5.02v-11.14h9.22v24.7c0,2.69-.23,5.13-.7,7.33-.47,2.2-1.16,4.12-2.08,5.76-.92,1.64-2.08,3.02-3.49,4.13-1.41,1.11-3.04,1.94-4.9,2.5-1.86.55-3.96.83-6.3.83Z"/>
      <path class="st0" d="M399.12,143.18v-21.5h-5.31v-6.78l8.96.38v-1.22c-1.49-.34-2.72-.88-3.68-1.63-.96-.75-1.65-1.65-2.08-2.72-.43-1.07-.64-2.2-.64-3.39,0-1.83.47-3.42,1.41-4.77.94-1.34,2.26-2.39,3.97-3.14,1.71-.75,3.71-1.12,6.02-1.12,1.96,0,3.74.25,5.34.74,1.6.49,2.89,1.1,3.87,1.82l-.58,8.32c-1.02-.73-2.18-1.32-3.46-1.79-1.28-.47-2.5-.7-3.65-.7-1.28,0-2.34.34-3.17,1.02-.83.68-1.25,1.79-1.25,3.33,0,1.07.22,1.91.67,2.53.45.62,1,1.07,1.66,1.34.66.28,1.31.46,1.95.54h7.68v7.23h-8.77v21.5h-8.96Z"/>
      <path class="st0" d="M437.45,144.08c-3.37,0-6.34-.67-8.9-2.02-2.56-1.34-4.57-3.33-6.02-5.95-1.45-2.62-2.18-5.9-2.18-9.82s.74-7.19,2.21-9.79c1.47-2.6,3.5-4.55,6.08-5.86,2.58-1.3,5.51-1.95,8.8-1.95s6.35.66,8.93,1.98c2.58,1.32,4.61,3.3,6.08,5.92s2.21,5.9,2.21,9.82-.76,7.26-2.27,9.89c-1.52,2.62-3.56,4.58-6.14,5.86-2.58,1.28-5.51,1.92-8.8,1.92ZM437.77,137.23c1.66,0,3.06-.38,4.19-1.15,1.13-.77,1.98-1.93,2.56-3.49.58-1.56.86-3.44.86-5.66,0-2.35-.31-4.34-.93-5.98-.62-1.64-1.53-2.9-2.72-3.78-1.2-.87-2.71-1.31-4.54-1.31-1.58,0-2.94.37-4.1,1.12-1.15.75-2.03,1.9-2.62,3.46-.6,1.56-.9,3.47-.9,5.73,0,3.63.72,6.38,2.18,8.26,1.45,1.88,3.46,2.82,6.02,2.82Z"/>
      <path class="st0" d="M461.2,143.18v-33.6h7.62l.06,11.46h1.22c.34-2.86.93-5.18,1.76-6.98s1.99-3.11,3.49-3.97c1.49-.85,3.35-1.28,5.57-1.28.38,0,.8.01,1.25.03.45.02.97.1,1.57.22l-.38,9.79c-.64-.3-1.34-.51-2.11-.64-.77-.13-1.45-.19-2.05-.19-1.66,0-3.09.38-4.29,1.15-1.2.77-2.17,1.87-2.91,3.3-.75,1.43-1.25,3.17-1.5,5.22v15.49h-9.28Z"/>
    </g>
  </g>
  <g>
    <g>
      <path class="st0" d="M259.8,214.76c-.46.3-.99.46-1.6.46-.68,0-1.39-.64-2.11-1.94-.72-1.29-1.42-2.92-2.11-4.9-.68-1.98-1.33-4.12-1.94-6.44-.61-2.32-1.14-4.48-1.6-6.5-.46-2.01-.82-3.71-1.08-5.07-.27-1.37-.4-2.13-.4-2.28,0-.3-.13-1.1-.4-2.39-.27-1.29-.61-3.31-1.03-6.04-.42-2.74-.88-6.29-1.37-10.66-.5-4.37-1.01-9.78-1.54-16.25,0-.68.11-1.56.34-2.62.23-1.06.76-1.6,1.6-1.6,1.06,0,1.88.72,2.45,2.17.57,1.44,1.03,3.23,1.37,5.36.34,2.13.59,4.35.74,6.67.15,2.32.34,4.35.57,6.1.3,2.43.59,4.64.85,6.61.27,1.98.53,3.93.8,5.87.27,1.94.61,3.97,1.03,6.1.42,2.13.93,4.49,1.54,7.07l4.56,18.92c0,.61-.23,1.06-.68,1.37Z"/>
      <path class="st0" d="M289.78,192.08c0,1.67-.23,3.27-.68,4.79-.46,1.52-1.07,2.85-1.82,3.99-.76,1.14-1.65,2.03-2.68,2.68-1.03.65-2.15.97-3.36.97-2.13,0-3.8-.61-5.02-1.82-1.22-1.21-2.15-2.62-2.79-4.22-.65-1.6-1.07-3.21-1.25-4.84-.19-1.63-.28-2.87-.28-3.71,0-1.37.21-2.91.63-4.62.42-1.71.99-3.29,1.71-4.73.72-1.44,1.54-2.66,2.45-3.65.91-.99,1.86-1.48,2.85-1.48.23,0,.59.08,1.08.23.49.15,1.01.38,1.54.68.53.3,1.01.68,1.42,1.14.42.46.7.99.86,1.6.83.08,1.67.38,2.51.91.83.53,1.29.95,1.37,1.25.61,1.98,1.01,3.95,1.2,5.93.19,1.98.29,3.61.29,4.9ZM284.65,190.03c0-1.14-.11-2.34-.34-3.59-.23-1.25-.68-2.53-1.37-3.82-.15.08-.34.11-.57.11-.3,0-.55-.04-.74-.11-.19-.08-.36-.11-.51-.11-.91,0-1.63.25-2.17.74-.53.5-.93,1.14-1.2,1.94-.27.8-.44,1.65-.51,2.57-.08.91-.11,1.79-.11,2.62s.04,1.77.11,2.79c.08,1.03.25,2,.51,2.91.26.91.63,1.69,1.08,2.34.46.65,1.06.97,1.82.97s1.41-.4,1.94-1.2c.53-.8.95-1.73,1.25-2.79.3-1.06.51-2.11.63-3.13.11-1.03.17-1.77.17-2.22Z"/>
      <path class="st0" d="M323.41,176.57c0,.23-.19,1.22-.57,2.96-.38,1.75-.76,3.72-1.14,5.93-.23,1.29-.59,3.21-1.08,5.76-.5,2.55-.74,6.4-.74,11.57,0,.15-.02.55-.06,1.2-.04.65-.15,1.31-.34,2-.19.68-.48,1.31-.86,1.88-.38.57-.95.85-1.71.85-.68,0-1.44-.3-2.28-.91-1.9-1.37-3.65-2.96-5.24-4.79-1.6-1.82-2.96-3.82-4.1-5.99-1.14-2.17-2.01-4.43-2.62-6.78-.61-2.35-.91-4.75-.91-7.18,0-.3.21-.59.63-.86.42-.26.74-.4.97-.4,1.14,0,2.03.65,2.68,1.94.64,1.29,1.29,2.85,1.94,4.67.65,1.82,1.41,3.75,2.28,5.76.87,2.01,2.18,3.74,3.93,5.19.23-.3.42-.87.57-1.71.15-.83.27-1.56.34-2.17.08-.53.19-1.58.34-3.13.15-1.56.32-3.21.51-4.96.19-1.75.34-3.42.46-5.02.11-1.6.17-2.7.17-3.31,0-.46.04-.99.11-1.6.07-.61.25-1.18.51-1.71.27-.53.63-.99,1.08-1.37.46-.38,1.06-.57,1.82-.57.38,0,1.03.25,1.94.74.91.5,1.37,1.16,1.37,2Z"/>
      <path class="st0" d="M365.14,204.73c.08.15.11.38.11.68,0,.46-.34,1.14-1.03,2.05-.23.3-.72.8-1.48,1.48-.76.68-1.79,1.37-3.08,2.05-1.29.68-2.87,1.29-4.73,1.82-1.86.53-4.05.8-6.55.8-1.75,0-3.46-.4-5.13-1.2-1.67-.8-3.16-1.97-4.45-3.53-1.29-1.56-2.36-3.5-3.19-5.81-.84-2.32-1.25-5.03-1.25-8.15s.38-5.74,1.14-8.32c.76-2.58,1.73-4.86,2.91-6.84,1.18-1.98,2.49-3.53,3.93-4.67,1.44-1.14,2.85-1.71,4.22-1.71,1.21,0,2.45.25,3.71.74,1.25.5,2.39,1.12,3.42,1.88,1.03.76,1.84,1.62,2.45,2.57.61.95.91,1.92.91,2.91,0,1.14-.51,2.32-1.54,3.53-1.03,1.22-2.26,2.34-3.71,3.36-1.44,1.03-2.89,1.86-4.33,2.51-1.44.65-2.58.97-3.42.97-.46,0-.86-.21-1.2-.63-.34-.42-.51-.93-.51-1.54,0-1.06.47-1.9,1.42-2.51.95-.61,2-1.16,3.13-1.65,1.14-.49,2.18-1.08,3.14-1.77.95-.68,1.42-1.63,1.42-2.85,0-.15-.19-.53-.57-1.14-.38-.61-1.41-.91-3.08-.91-.76,0-1.63.44-2.62,1.31-.99.88-1.94,2.05-2.85,3.53-.91,1.48-1.67,3.23-2.28,5.24-.61,2.01-.91,4.2-.91,6.55,0,1.98.36,3.76,1.08,5.36.72,1.6,1.65,2.95,2.79,4.05,1.14,1.1,2.47,1.96,3.99,2.56,1.52.61,3.08.91,4.67.91,1.14,0,2.38-.25,3.71-.74,1.33-.49,2.58-1.03,3.76-1.6,1.18-.57,2.2-1.1,3.08-1.6.87-.49,1.42-.74,1.65-.74s.47.11.74.34c.27.23.44.46.51.68Z"/>
      <path class="st0" d="M380.53,209.41c0,.46-.23.89-.68,1.31-.46.42-.97.8-1.54,1.14-.57.34-1.12.61-1.65.8-.53.19-.84.29-.91.29-.68,0-1.2-.17-1.54-.51-.34-.34-.61-.72-.8-1.14-.19-.42-.3-.82-.34-1.2-.04-.38-.06-.64-.06-.8,0-.3.08-.7.23-1.2.15-.49.38-.97.68-1.42.3-.46.66-.85,1.08-1.2.42-.34.89-.51,1.42-.51.99,0,1.92.42,2.79,1.25.87.84,1.31,1.9,1.31,3.19Z"/>
    </g>
    <g>
      <path class="st0" d="M135.28,215.42c-3.75,0-6.52-.99-8.29-2.98-1.77-1.98-2.66-5.15-2.66-9.5v-14.66h-4.86l.13-7.23h3.39c1.32,0,2.3-.19,2.94-.58.64-.38,1.02-1.09,1.15-2.11l.83-4.8h5.25v7.49h8.51v7.49h-8.51v14.02c0,1.54.36,2.65,1.09,3.33s1.83,1.02,3.33,1.02c.81,0,1.59-.08,2.34-.26.75-.17,1.4-.45,1.95-.83v8.58c-1.32.43-2.54.7-3.65.83-1.11.13-2.09.19-2.94.19Z"/>
      <path class="st0" d="M148.21,214.66v-45.76h9.28v10.5c0,.85-.03,1.75-.1,2.69-.06.94-.17,1.89-.32,2.85s-.3,1.93-.45,2.91c-.15.98-.31,1.96-.48,2.94h1.41c.6-2.18,1.35-4.05,2.27-5.63.92-1.58,2.1-2.81,3.55-3.68,1.45-.87,3.29-1.31,5.5-1.31,3.92,0,6.87,1.38,8.83,4.13s2.94,6.97,2.94,12.64v17.73h-9.28v-16.32c0-3.58-.52-6.24-1.57-7.97-1.05-1.73-2.61-2.59-4.7-2.59-1.71,0-3.12.51-4.22,1.54-1.11,1.02-1.94,2.4-2.5,4.13-.56,1.73-.88,3.66-.96,5.79v15.42h-9.22Z"/>
      <path class="st0" d="M204.21,215.55c-2.77,0-5.24-.38-7.39-1.15-2.16-.77-3.98-1.88-5.47-3.33-1.49-1.45-2.63-3.24-3.42-5.38-.79-2.13-1.18-4.54-1.18-7.23s.37-5.09,1.12-7.33c.75-2.24,1.84-4.18,3.3-5.83,1.45-1.64,3.22-2.91,5.31-3.81,2.09-.9,4.46-1.34,7.1-1.34s4.84.42,6.85,1.25c2,.83,3.68,2.08,5.02,3.74,1.34,1.66,2.33,3.7,2.94,6.11s.84,5.17.67,8.29l-26.37.26v-5.06l21.06-.19-3.26,2.56c.3-2.26.15-4.12-.45-5.57-.6-1.45-1.46-2.52-2.59-3.2-1.13-.68-2.38-1.02-3.74-1.02-1.62,0-3.05.43-4.29,1.28-1.24.85-2.2,2.1-2.88,3.74-.68,1.64-1.02,3.62-1.02,5.92,0,3.63.8,6.29,2.4,8,1.6,1.71,3.7,2.56,6.3,2.56,1.19,0,2.21-.16,3.04-.48.83-.32,1.51-.74,2.05-1.25.53-.51.96-1.09,1.28-1.73.32-.64.59-1.28.8-1.92l8,1.73c-.38,1.58-.95,3-1.7,4.26-.75,1.26-1.74,2.35-2.98,3.26-1.24.92-2.72,1.62-4.45,2.11-1.73.49-3.74.74-6.05.74Z"/>
    </g>
  </g>
</svg>